<?xml version="1.0" encoding="iso-8859-1"?>
<!-- Generator: Adobe Illustrator 19.0.0, SVG Export Plug-In . SVG Version: 6.00 Build 0)  -->
<svg version="1.1" id="Capa_1" xmlns="http://www.w3.org/2000/svg" xmlns:xlink="http://www.w3.org/1999/xlink" x="0px" y="0px"
	 viewBox="0 0 511.998 511.998" style="enable-background:new 0 0 511.998 511.998;" xml:space="preserve">
<path style="fill:#E6EAEE;" d="M353.056,487.746H158.942c-2.763,0-5.003-2.24-5.003-5.003v-25.764c0-2.763,2.24-5.003,5.003-5.003
	h194.114c2.763,0,5.003,2.24,5.003,5.003v25.764C358.059,485.505,355.819,487.746,353.056,487.746z"/>
<path style="fill:#CDD3D9;" d="M353.056,487.746h-22.399v-35.77h22.399c2.763,0,5.003,2.24,5.003,5.003v25.764
	C358.059,485.505,355.819,487.746,353.056,487.746z"/>
<rect x="221.94" y="395.703" style="fill:#E6EAEE;" width="68.11" height="56.273"/>
<rect x="262.284" y="395.703" style="fill:#CDD3D9;" width="27.771" height="56.273"/>
<path style="fill:#E6EAEE;" d="M470.018,395.254H41.98c-19.039,0-34.472-15.434-34.472-34.472V85.654
	c0-19.039,15.434-34.472,34.472-34.472h428.039c19.039,0,34.472,15.434,34.472,34.472v275.127
	C504.492,379.82,489.057,395.254,470.018,395.254z"/>
<path style="fill:#5C6D7D;" d="M504.495,359.244v1.541c0,19.031-15.439,34.47-34.48,34.47H41.984
	c-19.041,0-34.48-15.439-34.48-34.47v-1.541H504.495z"/>
<path style="fill:#53616D;" d="M504.495,359.244v1.541c0,19.031-15.439,34.47-34.48,34.47h-52.761
	c19.041,0,34.48-15.439,34.48-34.47v-1.541H504.495z"/>
<path style="fill:#34D6C1;" d="M468.322,222.979V103.932c0-2.99-2.24-5.413-5.003-5.413H48.982c-2.763,0-5.003,2.423-5.003,5.413
	v214.145c0,2.99,2.24,5.413,5.003,5.413h414.336c2.763,0,5.003-2.423,5.003-5.413v-37.714L468.322,222.979L468.322,222.979z"/>
<path style="fill:#1AC4AE;" d="M468.326,103.932v214.147c0,2.992-2.241,5.413-5.003,5.413h-26.506c2.762,0,5.003-2.421,5.003-5.413
	V103.932c0-2.992-2.241-5.413-5.003-5.413h26.506C466.085,98.518,468.326,100.94,468.326,103.932z"/>
<path style="fill:#FFD071;" d="M352.282,323.49H261.23V29.255c0-2.763,2.24-5.003,5.003-5.003h81.048
	c2.763,0,5.003,2.24,5.003,5.003V323.49H352.282z"/>
<path style="fill:#F7B657;" d="M352.277,29.25v294.242h-18.841V29.25c0-2.762-2.231-5.003-5.003-5.003h18.841
	C350.046,24.247,352.277,26.489,352.277,29.25z"/>
<rect x="159.714" y="299.786" style="fill:#FF6E5E;" width="73.413" height="23.704"/>
<rect x="218.408" y="299.786" style="fill:#F4584D;" width="14.721" height="23.707"/>
<rect x="159.714" y="96.586" style="fill:#FFD071;" width="73.413" height="203.2"/>
<g>
	<polygon style="fill:#F7B657;" points="233.131,299.786 233.135,96.588 218.756,96.588 218.76,299.786 	"/>
	<polygon style="fill:#F7B657;" points="218.756,299.792 218.76,299.786 159.717,299.786 	"/>
</g>
<rect x="185.999" y="96.586" style="fill:#FF6E5E;" width="20.848" height="203.2"/>
<polygon style="fill:#E6EAEE;" points="159.715,96.59 196.425,30.379 233.134,96.59 "/>
<polygon style="fill:#CDD3D9;" points="233.135,96.588 196.424,30.381 191.257,39.704 222.794,96.588 "/>
<polygon style="fill:#5C6D7D;" points="178.07,63.485 214.779,63.485 196.425,30.379 "/>
<path d="M47.287,78.382c0.19,0.449,0.42,0.881,0.69,1.291c0.27,0.409,0.59,0.789,0.931,1.141c0.35,0.35,0.73,0.66,1.141,0.931
	c0.41,0.27,0.84,0.51,1.291,0.69c0.46,0.189,0.931,0.33,1.411,0.43c0.48,0.1,0.971,0.14,1.461,0.14c0.49,0,0.991-0.04,1.471-0.14
	c0.48-0.1,0.951-0.24,1.401-0.43c0.45-0.181,0.891-0.42,1.301-0.69c0.41-0.27,0.79-0.58,1.141-0.931
	c0.34-0.351,0.66-0.73,0.931-1.141c0.27-0.41,0.5-0.841,0.69-1.291c0.19-0.46,0.33-0.932,0.43-1.411
	c0.09-0.48,0.14-0.972,0.14-1.461c0-0.49-0.05-0.981-0.14-1.472c-0.1-0.479-0.24-0.95-0.43-1.4c-0.19-0.45-0.42-0.892-0.69-1.301
	c-0.27-0.41-0.59-0.79-0.931-1.142c-0.35-0.34-0.73-0.66-1.141-0.931c-0.41-0.271-0.851-0.5-1.301-0.69
	c-0.45-0.189-0.921-0.33-1.401-0.43c-0.971-0.19-1.961-0.19-2.932,0c-0.48,0.1-0.951,0.24-1.411,0.43
	c-0.45,0.19-0.881,0.42-1.291,0.69c-0.41,0.27-0.79,0.59-1.141,0.931c-0.34,0.351-0.66,0.73-0.931,1.142
	c-0.27,0.409-0.5,0.851-0.69,1.301c-0.19,0.45-0.33,0.921-0.43,1.4c-0.1,0.49-0.15,0.981-0.15,1.472c0,0.489,0.05,0.98,0.15,1.461
	C46.956,77.452,47.097,77.922,47.287,78.382z"/>
<path d="M76.633,78.382c0.19,0.449,0.42,0.881,0.69,1.291c0.27,0.409,0.59,0.789,0.931,1.141c0.35,0.35,0.73,0.66,1.141,0.931
	c0.41,0.27,0.851,0.51,1.301,0.69c0.45,0.189,0.921,0.33,1.401,0.43c0.48,0.1,0.981,0.14,1.471,0.14c0.49,0,0.981-0.04,1.461-0.14
	c0.48-0.1,0.951-0.24,1.401-0.43c0.46-0.181,0.891-0.42,1.301-0.69c0.41-0.27,0.79-0.58,1.141-0.931
	c0.34-0.351,0.66-0.73,0.931-1.141c0.27-0.41,0.5-0.841,0.69-1.291c0.19-0.46,0.33-0.932,0.43-1.411c0.1-0.48,0.15-0.972,0.15-1.461
	c0-0.49-0.05-0.981-0.15-1.472c-0.1-0.479-0.24-0.95-0.43-1.4c-0.19-0.45-0.42-0.892-0.69-1.301c-0.27-0.41-0.59-0.79-0.931-1.142
	c-0.35-0.34-0.73-0.66-1.141-0.931c-0.41-0.271-0.84-0.5-1.301-0.69c-0.45-0.189-0.921-0.33-1.401-0.43
	c-0.971-0.19-1.961-0.19-2.932,0c-0.48,0.1-0.951,0.24-1.401,0.43c-0.45,0.19-0.891,0.42-1.301,0.69
	c-0.41,0.27-0.79,0.59-1.141,0.931c-0.34,0.351-0.66,0.73-0.931,1.142c-0.27,0.409-0.5,0.851-0.69,1.301
	c-0.19,0.45-0.33,0.921-0.43,1.4c-0.09,0.49-0.14,0.981-0.14,1.472c0,0.489,0.05,0.98,0.14,1.461
	C76.303,77.452,76.443,77.922,76.633,78.382z"/>
<path d="M105.991,78.382c0.18,0.449,0.41,0.881,0.68,1.291c0.28,0.409,0.59,0.789,0.941,1.141c0.34,0.35,0.73,0.66,1.141,0.931
	c0.4,0.27,0.84,0.51,1.291,0.69c0.45,0.189,0.931,0.33,1.401,0.43c0.49,0.1,0.981,0.14,1.471,0.14s0.981-0.04,1.461-0.14
	c0.48-0.1,0.961-0.24,1.411-0.43c0.45-0.181,0.891-0.42,1.291-0.69c0.41-0.27,0.8-0.58,1.141-0.931
	c0.35-0.351,0.66-0.73,0.941-1.141c0.27-0.41,0.5-0.841,0.69-1.291c0.18-0.46,0.33-0.932,0.42-1.411c0.1-0.48,0.15-0.972,0.15-1.461
	c0-0.49-0.05-0.981-0.15-1.472c-0.09-0.479-0.24-0.95-0.42-1.4c-0.19-0.45-0.42-0.892-0.69-1.301c-0.28-0.41-0.59-0.79-0.941-1.142
	c-0.34-0.34-0.73-0.66-1.141-0.931c-0.4-0.271-0.84-0.5-1.291-0.69c-0.45-0.189-0.931-0.33-1.411-0.43
	c-2.431-0.49-5.023,0.31-6.764,2.051c-0.35,0.351-0.66,0.73-0.941,1.142c-0.27,0.409-0.5,0.851-0.68,1.301
	c-0.19,0.45-0.34,0.921-0.43,1.4c-0.1,0.49-0.15,0.981-0.15,1.472c0,0.489,0.05,0.98,0.15,1.461
	C105.651,77.452,105.801,77.922,105.991,78.382z"/>
<path d="M511.996,359.186V85.654c0-23.147-18.83-41.977-41.977-41.977H359.787V29.255c0-6.897-5.61-12.507-12.507-12.507h-81.048
	c-6.897,0-12.507,5.61-12.507,12.507v14.422h-41.345l-9.39-16.937c-1.323-2.385-3.835-3.865-6.564-3.865
	c-2.728,0-5.24,1.48-6.564,3.865l-9.39,16.937H41.98c-23.147,0-41.977,18.83-41.977,41.977v273.522c0,0.023-0.003,0.045-0.003,0.068
	v1.541c0,23.146,18.834,41.975,41.985,41.975h172.456v41.712h-55.498c-6.897,0-12.507,5.61-12.507,12.507v25.764
	c0,6.897,5.61,12.507,12.507,12.507h27.059c4.144,0,7.504-3.359,7.504-7.504c0-4.145-3.36-7.504-7.504-7.504h-24.558V459.48h189.111
	v20.761H240.323c-4.144,0-7.504,3.359-7.504,7.504c0,4.145,3.36,7.504,7.504,7.504h112.733c6.896,0,12.507-5.61,12.507-12.507
	v-25.764c0-6.897-5.61-12.507-12.507-12.507h-55.499v-41.712h172.456c23.151,0,41.985-18.829,41.985-41.975v-1.541
	C511.999,359.224,511.996,359.206,511.996,359.186z M359.787,106.026h100.879v209.96H359.787V106.026z M261.229,116.415
	c4.145,0,7.504-3.359,7.504-7.504V31.757h76.045v12.55H331.46c-4.145,0-7.504,3.359-7.504,7.504s3.359,7.504,7.504,7.504h13.318
	v9.403H331.46c-4.145,0-7.504,3.359-7.504,7.504c0,4.145,3.359,7.504,7.504,7.504h13.318v9.404H331.46
	c-4.145,0-7.504,3.359-7.504,7.504c0,4.145,3.359,7.504,7.504,7.504h13.318v9.403H331.46c-4.145,0-7.504,3.359-7.504,7.504
	s3.359,7.504,7.504,7.504h13.318v9.403H331.46c-4.145,0-7.504,3.359-7.504,7.504c0,4.145,3.359,7.504,7.504,7.504h13.318v9.403
	H331.46c-4.145,0-7.504,3.359-7.504,7.504c0,4.144,3.359,7.504,7.504,7.504h13.318v9.403H331.46c-4.145,0-7.504,3.359-7.504,7.504
	s3.359,7.504,7.504,7.504h13.318v9.403H331.46c-4.145,0-7.504,3.359-7.504,7.504c0,4.145,3.359,7.504,7.504,7.504h13.318v9.403
	H331.46c-4.145,0-7.504,3.359-7.504,7.504s3.359,7.504,7.504,7.504h13.318v9.403H331.46c-4.145,0-7.504,3.359-7.504,7.504
	c0,4.145,3.359,7.504,7.504,7.504h13.318v9.403H331.46c-4.145,0-7.504,3.359-7.504,7.504c0,4.145,3.359,7.504,7.504,7.504h13.318
	v12.554h-76.045V162.275c0-4.145-3.359-7.504-7.504-7.504c-4.145,0-7.504,3.359-7.504,7.504v153.711h-13.086v-16.198V106.026h13.086
	v2.885C253.724,113.055,257.084,116.415,261.229,116.415z M253.724,58.686v32.331h-15.099L220.7,58.686H253.724z M186.001,307.292
	h20.848h18.78v8.693h-58.41v-8.693H186.001z M167.221,292.283V104.095h11.276v188.188H167.221z M193.506,292.283V104.095h5.839
	v188.188H193.506z M214.354,292.283V104.095h11.276v188.188H214.354z M196.425,45.856l5.613,10.125h-11.227L196.425,45.856z
	 M182.491,70.99h27.869l10.033,18.097h-47.935L182.491,70.99z M282.549,444.471h-53.1v-41.262h53.1V444.471z M496.247,367.038
	c-0.146,0.61-0.306,1.216-0.493,1.809c-0.042,0.133-0.09,0.263-0.134,0.395c-0.177,0.533-0.37,1.06-0.578,1.578
	c-0.052,0.13-0.1,0.261-0.154,0.39c-0.239,0.569-0.503,1.126-0.78,1.674c-0.079,0.157-0.158,0.313-0.24,0.469
	c-0.284,0.536-0.584,1.064-0.903,1.578c-0.086,0.139-0.176,0.275-0.264,0.412c-0.331,0.513-0.673,1.018-1.037,1.507
	c-0.061,0.082-0.124,0.161-0.186,0.242c-0.356,0.467-0.728,0.92-1.114,1.363c-0.094,0.108-0.186,0.219-0.282,0.326
	c-0.412,0.458-0.841,0.902-1.284,1.331c-0.113,0.11-0.228,0.219-0.343,0.327c-0.454,0.426-0.921,0.84-1.404,1.235
	c-0.095,0.078-0.193,0.151-0.289,0.227c-0.476,0.378-0.965,0.743-1.467,1.09c-0.06,0.041-0.117,0.086-0.177,0.126
	c-0.537,0.364-1.092,0.703-1.655,1.03c-0.117,0.068-0.233,0.136-0.351,0.202c-0.556,0.31-1.126,0.601-1.705,0.873
	c-0.12,0.056-0.242,0.11-0.363,0.164c-0.601,0.271-1.212,0.525-1.836,0.752c-0.066,0.024-0.133,0.044-0.199,0.067
	c-0.607,0.215-1.225,0.408-1.851,0.58c-0.09,0.025-0.178,0.053-0.269,0.076c-0.643,0.17-1.299,0.311-1.96,0.433
	c-0.133,0.025-0.267,0.049-0.401,0.072c-0.657,0.111-1.323,0.2-1.996,0.263c-0.123,0.011-0.247,0.019-0.371,0.028
	c-0.693,0.055-1.392,0.09-2.099,0.092c-0.014,0-0.028,0.001-0.042,0.001H41.98c-0.015,0-0.029-0.001-0.044-0.001
	c-0.705-0.001-1.403-0.037-2.095-0.092c-0.125-0.01-0.25-0.017-0.374-0.029c-0.671-0.062-1.335-0.151-1.991-0.262
	c-0.136-0.023-0.272-0.048-0.407-0.073c-0.659-0.122-1.313-0.263-1.954-0.432c-0.093-0.025-0.184-0.053-0.276-0.079
	c-0.622-0.171-1.236-0.362-1.839-0.576c-0.069-0.024-0.139-0.046-0.208-0.07c-0.621-0.226-1.23-0.479-1.828-0.748
	c-0.124-0.056-0.249-0.111-0.372-0.168c-0.577-0.27-1.144-0.559-1.698-0.869c-0.121-0.067-0.239-0.137-0.359-0.206
	c-0.561-0.324-1.113-0.662-1.648-1.025c-0.064-0.043-0.125-0.09-0.189-0.134c-0.497-0.343-0.981-0.704-1.453-1.08
	c-0.098-0.078-0.199-0.153-0.296-0.233c-0.481-0.393-0.946-0.805-1.398-1.23c-0.118-0.11-0.235-0.222-0.35-0.334
	c-0.44-0.427-0.867-0.868-1.277-1.324c-0.099-0.11-0.193-0.223-0.29-0.335c-0.38-0.438-0.749-0.886-1.102-1.348
	c-0.066-0.087-0.134-0.173-0.2-0.26c-0.359-0.483-0.698-0.983-1.025-1.49c-0.091-0.141-0.183-0.28-0.271-0.423
	c-0.317-0.512-0.615-1.036-0.898-1.57c-0.084-0.158-0.164-0.318-0.245-0.478c-0.275-0.546-0.538-1.101-0.776-1.667
	c-0.055-0.13-0.103-0.264-0.156-0.396c-0.208-0.516-0.4-1.04-0.576-1.571c-0.044-0.133-0.093-0.264-0.135-0.398
	c-0.186-0.593-0.347-1.199-0.492-1.808c-0.023-0.097-0.045-0.193-0.067-0.29h480.629
	C496.292,366.845,496.27,366.941,496.247,367.038z M496.987,351.739H15.011V85.654c0-14.87,12.098-26.968,26.968-26.968h130.172
	l-17.926,32.331H48.832c-6.897,0-12.507,5.794-12.507,12.917v214.144c0,7.123,5.61,12.918,12.507,12.918h110.865
	c0.007,0,0.013,0.001,0.019,0.001h73.418c0.007,0,0.013-0.001,0.019-0.001h28.076h91.054h110.885
	c6.897,0,12.507-5.794,12.507-12.918V103.934c0-7.122-5.61-12.917-12.507-12.917h-103.38V58.686h110.232
	c14.87,0,26.968,12.098,26.968,26.968V351.739z M152.212,106.026v193.762v16.199H51.333v-209.96H152.212z"/>
<g>
</g>
<g>
</g>
<g>
</g>
<g>
</g>
<g>
</g>
<g>
</g>
<g>
</g>
<g>
</g>
<g>
</g>
<g>
</g>
<g>
</g>
<g>
</g>
<g>
</g>
<g>
</g>
<g>
</g>
</svg>
